<svg xmlns="http://www.w3.org/2000/svg" viewBox="0 0 128 128">
  <defs>
    <linearGradient id="a" x1="64" y1="0" x2="64" y2="128" gradientUnits="userSpaceOnUse">
      <stop offset="0" stop-color="#7c3aed"/>
      <stop offset="1" stop-color="#06b6d4"/>
    </linearGradient>
  </defs>
  <circle cx="64" cy="64" r="60" fill="url(#a)"/>
  <path fill="#fff" d="M64 20c-4 0-8 3-8 8v32c0 4 4 8 8 8s8-4 8-8V28c0-5-4-8-8-8zm24 44c-2-2-6-2-8 0L64 80 48 64c-2-2-6-2-8 0s-2 6 0 8l20 20c2 2 6 2 8 0l20-20c2-2 2-6 0-8z"/>
</svg>